<svg xmlns="http://www.w3.org/2000/svg" fill="none" viewBox="0 0 56 16" height="16" width="56">
<g clip-path="url(#clip0_10753_42841)" id="logo icon BLACK 1">
<g id="Layer 2">
<g id="ICON">
<g id="BLACK">
<path fill="#28272A" d="M11.6573 5.65316C10.8986 7.62532 8.52568 13.9676 8.28808 14.4175C8.00374 15.0593 7.45843 15.4625 7.12579 15.4625C6.769 15.4625 6.67474 15.2972 6.43714 14.4651C5.82094 12.4703 2.4743 2.63604 1.90562 1.83205C1.61972 1.4281 1.28786 1.30957 0.529097 1.16686C-0.206293 1.02494 -0.182923 0.192868 0.648286 0.192868C1.45457 0.192868 2.73527 0.240437 3.66074 0.240437C4.94299 0.240437 5.86846 0.192868 6.769 0.192868C7.55269 0.192868 7.60021 0.999981 6.83989 1.16686C5.74927 1.40549 5.63086 1.64177 5.82094 2.18764C6.13255 3.23338 7.98037 8.86211 8.43142 10.194C8.52568 10.4537 8.57398 10.4537 8.66512 10.2884C8.80691 10.0747 11.1323 3.34802 11.7975 1.40549C11.9641 0.962795 12.2516 0.575858 12.6272 0.288786C12.9388 0.0501615 13.2917 0.0275468 13.4343 0.57342C13.5293 1.02494 13.7459 1.5942 14.0037 2.33191C15.0266 4.9638 16.5932 8.78803 17.2125 10.1418C17.3083 10.3555 17.38 10.3321 17.4509 10.1176C17.9494 8.78725 18.7082 6.57881 19.4911 4.22687C19.8713 3.03921 20.0613 2.37402 20.0613 2.11278C20.0613 1.70884 19.8713 1.4242 18.3047 1.16296C17.5693 1.04443 17.5693 0.188969 18.4472 0.188969C19.4436 0.188969 20.6549 0.236538 21.152 0.236538C21.8165 0.236538 22.7879 0.188969 23.2872 0.188969C24.1184 0.188969 24.1441 0.996082 23.3355 1.16296C22.22 1.37663 21.9123 1.5903 21.4612 2.73118C20.584 4.98797 18.3989 11.044 17.3083 14.0386C16.9764 14.965 16.4062 15.4422 16.0985 15.4422C15.8134 15.4422 15.6708 15.2746 15.5532 14.9907C15.3405 14.4199 13.0151 8.67418 11.7578 5.6555C11.7282 5.63055 11.6815 5.60559 11.6573 5.65316Z" id="Vector"></path>
<path fill="#28272A" d="M39.5811 7.65487C39.5811 10.7203 38.418 12.5022 37.1607 13.6649C35.9509 14.7567 34.1226 15.8749 31.2527 15.8749C25.9133 15.8749 23.1128 12.2402 23.1377 8.15473C23.1603 5.16257 24.4893 3.19041 26.0076 2.00274C27.3607 0.910996 29.1641 0.124939 31.7723 0.124939C36.6146 0.124939 39.5811 3.40408 39.5811 7.65487ZM35.686 2.95256C33.4542 0.718381 30.786 2.4488 28.8564 4.38119C26.2226 7.01776 24.6287 10.6619 27.0273 13.0637C29.0068 15.0452 31.4568 14.0049 34.0922 11.3676C36.6248 8.83162 38.1002 5.37078 35.6853 2.95256H35.686Z" id="Vector_2"></path>
<path fill="#28272A" d="M45.8896 2.77005C46.0151 2.47696 46.1192 2.17516 46.2012 1.86702C46.2954 1.48803 47.7428 0.133484 48.2422 0.133484C48.5265 0.133484 48.6449 0.275411 48.6917 0.561604C48.7097 0.851729 48.7577 1.1392 48.835 1.41941C50.3775 5.36139 52.6078 10.7538 53.6041 12.9607C54.0786 13.9831 54.3395 14.1967 55.3842 14.4096C56.2847 14.6233 56.143 15.4554 55.3133 15.4554C54.4564 15.4554 53.841 15.407 52.466 15.407C51.4213 15.407 50.0448 15.4554 49.3328 15.4554C48.5491 15.4554 48.4307 14.6709 49.2386 14.4814C50.1391 14.2677 50.2583 14.1733 50.0955 13.5791C49.9054 13.0566 49.216 11.4409 48.8841 10.5378C48.8374 10.3943 48.7415 10.3709 48.5725 10.3709H44.2521C44.1337 10.3709 44.062 10.4193 44.0394 10.5137C43.8493 11.1554 43.5401 11.8206 43.2082 12.7237C42.8047 13.9573 42.9472 14.1726 44.4905 14.4806C45.2695 14.6475 45.2484 15.4546 44.3713 15.4546C43.565 15.4546 42.969 15.4062 42.1651 15.4062C41.3612 15.4062 39.9839 15.4546 39.6723 15.4546C38.8153 15.4546 38.7702 14.6225 39.5764 14.4806C40.8587 14.2466 41.0721 14.0283 41.7366 12.556C42.8047 10.2056 44.9875 4.93249 45.8896 2.77005ZM44.6805 8.85264C44.6322 8.9236 44.6805 8.94856 44.7989 8.94856H48.144C48.2632 8.94856 48.3107 8.9236 48.2632 8.78167C48.0248 8.18745 46.861 5.14694 46.4832 4.22051C46.103 5.14538 45.1791 7.52071 44.6805 8.85108V8.85264Z" id="Vector_3"></path>
</g>
</g>
</g>
</g>
<defs>
<clipPath id="clip0_10753_42841">
<rect transform="translate(0 0.124969)" fill="white" height="15.75" width="56"></rect>
</clipPath>
</defs>
</svg>
